<?xml version="1.0" encoding="UTF-8"?>
<svg xmlns="http://www.w3.org/2000/svg" id="Layer_1" data-name="Layer 1" viewBox="0 0 512 512" width="512" height="512"><path d="M359.483,5H152.517A45.642,45.642,0,0,0,107,51V435.314c0,18.487,10,34.451,26,41.755V501a6.219,6.219,0,0,0,6.25,6h38.234c3.314,0,5.516-2.687,5.516-6V481H329v20c0,3.313,2.2,6,5.516,6H372.75a6.219,6.219,0,0,0,6.25-6V477.069c16-7.3,26-23.268,26-41.755V51A45.642,45.642,0,0,0,359.483,5ZM171,495H145V480.735a52.563,52.563,0,0,0,7.517.265H171Zm10-26H162v-2.8a23.667,23.667,0,0,1,19-23.148Zm34,0H193V443h22Zm35,0H227V443h23Zm35,0H262V443h23Zm34,0H297V443h22Zm12,0V442.867c11,1.915,20,11.648,20,23.338V469Zm36,26H341V481h18.483a52.563,52.563,0,0,0,7.517-.265Zm26-59.686a33.352,33.352,0,0,1-30,33.507v-2.616c0-19.677-16.076-35.2-35.753-35.2h-141.5C166.065,431,150,446.528,150,466.205V468.9a33.346,33.346,0,0,1-31-33.585V156h21v31.033a22,22,0,0,0,44,0V156H393ZM152,187.033V113a10,10,0,0,1,20,0v74.035a10,10,0,0,1-20,0ZM393,144H184V113a22,22,0,0,0-44,0v31H119V51a33.629,33.629,0,0,1,33.517-34H359.483A33.629,33.629,0,0,1,393,51Z"/><path d="M368,92H304a10,10,0,0,0-10,10v18a10,10,0,0,0,10,10h64a10,10,0,0,0,10-10V102A10,10,0,0,0,368,92Zm-3,26H306V104h59Z"/><path d="M136,238.106a6,6,0,0,0-6,6v75.807a6,6,0,0,0,12,0V244.106A6,6,0,0,0,136,238.106Z"/><path d="M136,212.892a6,6,0,0,0-6,6v4.834a6,6,0,0,0,12,0v-4.834A6,6,0,0,0,136,212.892Z"/></svg>
